<?xml version="1.0" encoding="iso-8859-1"?>
<!-- Generator: Adobe Illustrator 19.0.0, SVG Export Plug-In . SVG Version: 6.00 Build 0)  -->
<svg version="1.1" id="Layer_1" xmlns="http://www.w3.org/2000/svg" xmlns:xlink="http://www.w3.org/1999/xlink" x="0px" y="0px"
	 viewBox="0 0 512 512" style="enable-background:new 0 0 512 512;" xml:space="preserve">
<g>
	<g>
		<path d="M488.836,287.72c-12.123-12.123-26.397-17.535-38.992-22.31c-10.892-4.13-20.3-7.697-27.385-14.783
			c-10.008-10.009-14.1-17.927-18.838-27.098c-5.318-10.292-11.345-21.958-25.759-36.373c-0.286-0.286-0.588-0.573-0.906-0.862
			c-9.068-8.214-22.193-9.404-32.667-2.966c-10.627,6.529-15.563,18.96-12.282,30.931l4.568,16.673
			c0.101,0.368-0.045,0.755-0.37,0.963l-4.785,3.077l-40.929-40.929l12.4-12.4l13.015,13.015l50.014-64.052l-27.501-68.139
			l-20.283,17.508L302.07,63.913l-18.911,18.911L297.834,97.5l-3.017,2.604L277.563,82.85l-18.911,18.911l15.865,15.865L256,133.61
			l-18.517-15.983l15.865-15.865l-18.911-18.911l-17.254,17.254l-3.017-2.604l14.675-14.676L209.93,63.913l-16.064,16.064
			l-20.283-17.508l-27.501,68.139l50.014,64.052l13.015-13.015l12.4,12.4l-40.929,40.929l-4.785-3.077
			c-0.325-0.208-0.471-0.595-0.37-0.963l4.568-16.673c3.281-11.971-1.656-24.402-12.282-30.931
			c-10.474-6.438-23.6-5.248-32.667,2.966c-0.318,0.289-0.62,0.576-0.906,0.862c-14.414,14.415-20.441,26.08-25.759,36.373
			c-4.738,9.17-8.829,17.089-18.838,27.098c-7.085,7.086-16.493,10.653-27.385,14.783c-12.595,4.775-26.869,10.187-38.992,22.31
			c-20.96,20.957-27.743,44.047-20.161,68.627c6.589,21.364,23.103,39.774,36.754,53.425c13.65,13.65,32.059,30.164,53.424,36.753
			c24.58,7.581,47.67,0.798,68.628-20.161c12.123-12.123,17.535-26.398,22.31-38.992c4.13-10.893,7.697-20.3,14.782-27.386
			c6.983-6.983,12.31-9.483,19.055-12.649c7.618-3.575,16.253-7.628,26.479-17.854c2.38-2.38,4.767-5.626,7.511-10.216
			c5.112-8.548,5.197-19.229,0.221-27.875c-4.992-8.673-14.305-13.985-24.307-13.86l-21.089,0.267c-0.012,0-0.023-0.005-0.035-0.006
			L256,228.535l49.262,49.262c-0.012,0-0.023,0.006-0.035,0.006l-21.089-0.267c-10.001-0.125-19.315,5.187-24.307,13.86
			c-4.976,8.645-4.892,19.326,0.221,27.875c2.745,4.59,5.131,7.836,7.511,10.216c10.227,10.226,18.862,14.279,26.479,17.854
			c6.744,3.166,12.071,5.666,19.055,12.649c7.086,7.086,10.653,16.493,14.782,27.386c4.775,12.594,10.187,26.868,22.31,38.992
			c20.958,20.958,44.048,27.741,68.628,20.161c21.365-6.589,39.773-23.103,53.424-36.753c13.651-13.651,30.165-32.061,36.754-53.425
			C516.577,331.769,509.794,308.679,488.836,287.72z M106.777,385.975l-43.221-43.222l18.911-18.911l43.221,43.222L106.777,385.975z
			 M135.794,348.74l-35.003-35.005l18.912-18.911l35.003,35.005L135.794,348.74z M256,159.556l-12.399-12.399l12.399-12.4
			l12.399,12.399L256,159.556z M357.294,329.829l35.003-35.005l18.912,18.911l-35.003,35.005L357.294,329.829z M405.223,385.975
			l-18.911-18.911l43.221-43.222l18.911,18.911L405.223,385.975z"/>
	</g>
</g>
<g>
</g>
<g>
</g>
<g>
</g>
<g>
</g>
<g>
</g>
<g>
</g>
<g>
</g>
<g>
</g>
<g>
</g>
<g>
</g>
<g>
</g>
<g>
</g>
<g>
</g>
<g>
</g>
<g>
</g>
</svg>
